<svg viewBox="0 0 477 104" version="1.1" xmlns="http://www.w3.org/2000/svg" xmlns:xlink="http://www.w3.org/1999/xlink">
    <defs>
        <polygon id="path-1" points="0 104 476.653447 104 476.653447 0.429419355 0 0.429419355"></polygon>
    </defs>
    <g id="Home" stroke="none" stroke-width="1" fill="none" fill-rule="evenodd">
        <g id="Desktop" transform="translate(-40.000000, -24.000000)">
            <g id="Group" transform="translate(40.000000, 24.000000)">
                <g id="Page-1">
                    <g>
                        <g id="Group-23">
                            <polygon id="Fill-1" fill="#4A4A4A" points="93.966611 44.4580153 97.9482471 44.4580153 97.9482471 15.0839695 93.966611 15.0839695"></polygon>
                            <path d="M121.91834,44.7441548 L126.024994,44.7441548 L126.024994,25.6014452 C126.024994,23.9307355 125.73669,21.2971871 125.73669,21.2971871 L125.817147,21.2971871 C125.817147,21.2971871 127.188266,23.9709935 128.264377,25.6014452 L141.331917,44.7441548 L145.354762,44.7441548 L145.354762,15.2316387 L141.248108,15.2316387 L141.248108,34.4213161 C141.248108,36.0517677 141.539764,38.6853161 141.539764,38.6853161 L141.455955,38.6853161 C141.455955,38.6853161 140.084836,36.0081548 139.008725,34.4213161 L125.984765,15.2316387 L121.91834,15.2316387 L121.91834,44.7441548 Z" id="Fill-2" fill="#4A4A4A"></path>
                            <path d="M169.340638,44.7441548 L173.447292,44.7441548 L173.447292,25.6014452 C173.447292,23.9307355 173.155635,21.2971871 173.155635,21.2971871 L173.239445,21.2971871 C173.239445,21.2971871 174.607212,23.9709935 175.686675,25.6014452 L188.754215,44.7441548 L192.77706,44.7441548 L192.77706,15.2316387 L188.670406,15.2316387 L188.670406,34.4213161 C188.670406,36.0517677 188.95871,38.6853161 188.95871,38.6853161 L188.878253,38.6853161 C188.878253,38.6853161 187.507134,36.0081548 186.431023,34.4213161 L173.403711,15.2316387 L169.340638,15.2316387 L169.340638,44.7441548 Z" id="Fill-4" fill="#4A4A4A"></path>
                            <path d="M273.766979,44.7441548 L277.873633,44.7441548 L288.658209,15.2316387 L284.300127,15.2316387 L276.958436,36.0920258 C276.422056,37.6822194 275.838744,40.1480258 275.838744,40.1480258 L275.758287,40.1480258 C275.758287,40.1480258 275.174974,37.6822194 274.638595,36.0920258 L267.377361,15.2316387 L262.942175,15.2316387 L273.766979,44.7441548 Z" id="Fill-6" fill="#4A4A4A"></path>
                            <polygon id="Fill-8" fill="#4A4A4A" points="354.258065 44.7441548 358.364719 44.7441548 358.364719 18.8280258 368.401716 18.8280258 368.401716 15.2316387 344.217715 15.2316387 344.217715 18.8280258 354.258065 18.8280258"></polygon>
                            <mask id="mask-2" fill="white">
                                <use xlink:href="#path-1"></use>
                            </mask>
                            <g id="Clip-11"></g>
                            <polygon id="Fill-10" fill="#4A4A4A" mask="url(#mask-2)" points="388.613493 44.7468387 392.716795 44.7468387 392.716795 15.2343226 388.613493 15.2343226"></polygon>
                            <path d="M423.799974,44.7441548 L427.903275,44.7441548 L438.691204,15.2316387 L434.333122,15.2316387 L426.991431,36.0920258 C426.455051,37.6822194 425.871739,40.1480258 425.871739,40.1480258 L425.791282,40.1480258 C425.791282,40.1480258 425.20797,37.6822194 424.668238,36.0920258 L417.410356,15.2316387 L412.971817,15.2316387 L423.799974,44.7441548 Z" id="Fill-12" fill="#4A4A4A" mask="url(#mask-2)"></path>
                            <polygon id="Fill-13" fill="#4A4A4A" mask="url(#mask-2)" points="458.942874 44.7441548 476.6568 44.7441548 476.6568 41.1511226 463.049528 41.1511226 463.049528 31.6636387 473.542447 31.6636387 473.542447 28.0672516 463.049528 28.0672516 463.049528 18.8280258 475.94945 18.8280258 475.94945 15.2316387 458.942874 15.2316387"></polygon>
                            <path d="M235.972354,37.6610839 C238.034062,37.6610839 239.961675,38.2448258 241.617746,39.2579871 C243.491721,36.6948903 244.60806,33.497729 244.60806,30.0355355 C244.60806,21.5846968 237.980424,14.7341161 229.807344,14.7341161 C221.634265,14.7341161 215.009981,21.5846968 215.009981,30.0355355 C215.009981,37.0203097 219.535681,42.9114065 225.720805,44.7465032 C227.386933,40.5865032 231.349435,37.6610839 235.972354,37.6610839" id="Fill-14" fill="#4A4A4A" mask="url(#mask-2)"></path>
                            <path d="M52.8377172,47.8990452 C47.470572,55.0448516 38.965608,59.6644645 29.3878855,59.6644645 C26.5718943,59.6644645 23.8531218,59.2618839 21.2751489,58.5204645 C20.2023903,61.130529 19.602316,63.9989161 19.602316,67.0048516 C19.602316,67.8938839 19.6626587,68.7694968 19.7598774,69.6249806 C20.5041037,69.5276903 21.2650918,69.4740129 22.036137,69.4740129 C31.4965266,69.4740129 39.1667503,77.1968516 39.1667503,86.7313032 C39.1667503,87.5196903 39.10976,88.2879484 39.0091889,89.0461419 C39.8707481,89.1467871 40.7457168,89.2071742 41.6307426,89.2071742 C53.7964951,89.2071742 63.6591692,79.2701419 63.6591692,67.0048516 C63.6591692,58.8727226 59.314497,51.7604645 52.8377172,47.8990452" id="Fill-15" fill="#4A4A4A" mask="url(#mask-2)"></path>
                            <path d="M41.6297369,44.8095742 C45.7229813,44.8095742 49.5547407,45.9368 52.8367115,47.8993806 C56.5645475,42.9308645 58.7737596,36.7512516 58.7737596,30.0482839 C58.7737596,13.6900903 45.6157054,0.428412903 29.3868798,0.428412903 C13.1580542,0.428412903 0,13.6900903 0,30.0482839 C0,43.5682839 8.99105768,54.9680258 21.2741432,58.5208 C24.5829329,50.4691871 32.4475941,44.8095742 41.6297369,44.8095742" id="Fill-16" fill="#4A4A4A" mask="url(#mask-2)"></path>
                            <path d="M19.7608832,69.6236387 C11.3766045,70.7475097 4.90317709,77.9771871 4.90317709,86.7333161 C4.90317709,96.2677677 12.5734008,104.000671 22.0371427,104.000671 C30.7197823,104.000671 37.8871505,97.488929 39.0101946,89.0448 C28.9329688,87.8437677 20.9476223,79.7854452 19.7608832,69.6236387" id="Fill-17" fill="#4A4A4A" mask="url(#mask-2)"></path>
                            <path d="M121.91834,44.7441548 L126.024994,44.7441548 L126.024994,25.6014452 C126.024994,23.9307355 125.73669,21.2971871 125.73669,21.2971871 L125.817147,21.2971871 C125.817147,21.2971871 127.188266,23.9709935 128.264377,25.6014452 L141.331917,44.7441548 L145.354762,44.7441548 L145.354762,15.2316387 L141.248108,15.2316387 L141.248108,34.4213161 C141.248108,36.0517677 141.539764,38.6853161 141.539764,38.6853161 L141.455955,38.6853161 C141.455955,38.6853161 140.084836,36.0081548 139.008725,34.4213161 L125.984765,15.2316387 L121.91834,15.2316387 L121.91834,44.7441548 Z" id="Fill-18" fill="#4A4A4A" mask="url(#mask-2)"></path>
                            <path d="M169.340638,44.7441548 L173.447292,44.7441548 L173.447292,25.6014452 C173.447292,23.9307355 173.155635,21.2971871 173.155635,21.2971871 L173.239445,21.2971871 C173.239445,21.2971871 174.607212,23.9709935 175.686675,25.6014452 L188.754215,44.7441548 L192.77706,44.7441548 L192.77706,15.2316387 L188.670406,15.2316387 L188.670406,34.4213161 C188.670406,36.0517677 188.95871,38.6853161 188.95871,38.6853161 L188.878253,38.6853161 C188.878253,38.6853161 187.507134,36.0081548 186.431023,34.4213161 L173.403711,15.2316387 L169.340638,15.2316387 L169.340638,44.7441548 Z" id="Fill-19" fill="#4A4A4A" mask="url(#mask-2)"></path>
                            <path d="M273.766979,44.7441548 L277.873633,44.7441548 L288.658209,15.2316387 L284.300127,15.2316387 L276.958436,36.0920258 C276.422056,37.6822194 275.838744,40.1480258 275.838744,40.1480258 L275.758287,40.1480258 C275.758287,40.1480258 275.174974,37.6822194 274.638595,36.0920258 L267.377361,15.2316387 L262.942175,15.2316387 L273.766979,44.7441548 Z" id="Fill-20" fill="#4A4A4A" mask="url(#mask-2)"></path>
                            <path d="M93.8241342,89.1991226 L103.029744,89.1991226 C111.73585,89.1991226 117.636022,83.8481548 117.636022,74.4378323 C117.636022,65.0811871 111.73585,59.6866065 103.029744,59.6866065 L93.8241342,59.6866065 L93.8241342,89.1991226 Z M95.6277095,87.5183484 L95.6277095,61.3707355 L102.738087,61.3707355 C110.515587,61.3707355 115.748637,66.0071226 115.748637,74.4378323 C115.748637,82.9222194 110.515587,87.5183484 102.738087,87.5183484 L95.6277095,87.5183484 Z M138.038549,89.1991226 L154.860744,89.1991226 L154.860744,87.5183484 L139.835419,87.5183484 L139.835419,75.1624774 L151.511726,75.1624774 L151.511726,73.4749935 L139.835419,73.4749935 L139.835419,61.3707355 L154.06288,61.3707355 L154.06288,59.6866065 L138.038549,59.6866065 L138.038549,89.1991226 Z M172.960192,86.0422194 C172.960192,86.0422194 176.138239,89.7057032 181.914374,89.7057032 C187.144072,89.7057032 190.412633,86.2871226 190.412633,82.0365419 C190.412633,72.1699613 175.427537,74.5720258 175.427537,66.768671 C175.427537,63.9036387 178.022272,60.9480258 182.380353,60.9480258 C186.262398,60.9480258 188.776676,63.4775742 188.776676,63.4775742 L189.782387,61.9142194 C189.782387,61.9142194 187.103843,59.1833806 182.330068,59.1833806 C177.019913,59.1833806 173.546857,62.8938323 173.546857,66.8156387 C173.546857,76.0448 188.525248,73.7333161 188.525248,82.1170581 C188.525248,85.6564129 185.64221,87.9410581 181.998183,87.9410581 C177.143951,87.9410581 174.170398,84.6499613 174.170398,84.6499613 L172.960192,86.0422194 Z M210.513447,89.1991226 L212.31367,89.1991226 L212.31367,59.6866065 L210.513447,59.6866065 L210.513447,89.1991226 Z M232.598863,74.4378323 C232.598863,83.0027355 238.790692,89.7057032 246.947009,89.7057032 C253.433846,89.7057032 256.940426,85.3645419 256.940426,85.3645419 L257.034292,85.3645419 C257.034292,85.3645419 256.994064,85.9986065 256.994064,86.6293161 L256.994064,89.1991226 L258.790934,89.1991226 L258.790934,75.7462194 L251.761013,75.7462194 L251.761013,77.4404129 L256.994064,77.4404129 L256.994064,83.1302194 C256.994064,83.1302194 253.225999,87.9813161 246.947009,87.9813161 C239.712594,87.9813161 234.482896,82.1170581 234.482896,74.4378323 C234.482896,66.8156387 239.836631,60.9077677 247.195085,60.9077677 C252.806953,60.9077677 256.320237,63.9036387 256.320237,63.9036387 L257.406405,62.5080258 C257.406405,62.5080258 253.809312,59.1833806 247.195085,59.1833806 C238.914729,59.1833806 232.598863,65.9266065 232.598863,74.4378323 Z M279.444889,89.1991226 L281.245112,89.1991226 L281.245112,66.0473806 C281.245112,64.5779613 281.033912,62.3402839 281.033912,62.3402839 L281.121074,62.3402839 C281.121074,62.3402839 282.539127,64.7054452 283.504609,66.0473806 L300.202767,89.1991226 L301.872247,89.1991226 L301.872247,59.6866065 L300.072024,59.6866065 L300.072024,82.8383484 C300.072024,84.3111226 300.283224,86.5521548 300.283224,86.5521548 L300.202767,86.5521548 C300.202767,86.5521548 298.781362,84.176929 297.819232,82.8383484 L281.121074,59.6866065 L279.444889,59.6866065 L279.444889,89.1991226 Z" id="Fill-21" fill="#4A4A4A" mask="url(#mask-2)"></path>
                            <path d="M316.58312,19.2879742 C316.58312,19.2879742 315.915998,21.9651355 315.423199,23.4681032 L312.144581,32.8348129 L321.021658,32.8348129 L317.789973,23.4681032 C317.29047,21.9651355 316.666929,19.2879742 316.666929,19.2879742 L316.58312,19.2879742 Z M322.101122,36.2668129 L311.065118,36.2668129 L308.165317,44.7545548 L303.931273,44.7545548 L314.471126,15.2319742 L318.785627,15.2319742 L329.318775,44.7545548 L325.047855,44.7545548 L322.101122,36.2668129 Z" id="Fill-22" fill="#4A4A4A" mask="url(#mask-2)"></path>
                        </g>
                    </g>
                </g>
            </g>
        </g>
    </g>
</svg>