<svg width="310" height="505" viewBox="0 0 310 505" fill="none" xmlns="http://www.w3.org/2000/svg">
<path fill-rule="evenodd" clip-rule="evenodd" d="M257.052 230.933C274.619 206.841 285 177.062 285 144.805C285 64.8332 221.195 0 142.5 0C63.8048 0 0 64.8332 0 144.805C0 209.161 41.3333 263.69 98.4903 282.549C93.0213 295.611 90 309.953 90 325C90 328.99 90.2124 332.93 90.6266 336.81C52.6749 344.394 24 378.797 24 420.112C24 466.984 60.8815 505 106.387 505C147.182 505 181.021 474.434 187.584 434.307C191.66 434.765 195.802 435 200 435C260.751 435 310 385.751 310 325C310 285.137 288.796 250.227 257.052 230.933Z" fill="#FFDE7D"/>
</svg>
